HIERARCHY
ROOT Hips
{
	OFFSET	0.00	0.00	0.00
	CHANNELS 6 Xposition Yposition Zposition Zrotation Xrotation Yrotation
	JOINT LeftUpLeg
	{
		OFFSET	 0.126116	-0.014019	-0.065224
		CHANNELS 3 Zrotation Xrotation Yrotation
		JOINT LeftLeg
		{
			OFFSET	 0.000000	 0.000000	 0.569914
			CHANNELS 3 Zrotation Xrotation Yrotation
			JOINT LeftFoot
			{
				OFFSET	 0.000000	 0.000000	 0.544423
				CHANNELS 3 Zrotation Xrotation Yrotation
				JOINT LeftToeBase
				{
					OFFSET	 0.000000	 0.000000	 0.207117
					CHANNELS 3 Zrotation Xrotation Yrotation
					End Site
					{
						OFFSET	 0.000000	 0.000000	 0.207117
					}
				}
			}
		}
	}
	JOINT RightUpLeg
	{
		OFFSET	-0.124023	-0.008373	-0.065224
		CHANNELS 3 Zrotation Xrotation Yrotation
		JOINT RightLeg
		{
			OFFSET	 0.000000	 0.000000	 0.570047
			CHANNELS 3 Zrotation Xrotation Yrotation
			JOINT RightFoot
			{
				OFFSET	 0.000000	 0.000000	 0.544354
				CHANNELS 3 Zrotation Xrotation Yrotation
				JOINT RightToeBase
				{
					OFFSET	 0.000000	 0.000000	 0.207540
					CHANNELS 3 Zrotation Xrotation Yrotation
					End Site
					{
						OFFSET	 0.000000	 0.000000	 0.207540
					}
				}
			}
		}
	}
	JOINT Spine
	{
		OFFSET	 0.000184	-0.007763	 0.117403
		CHANNELS 3 Zrotation Xrotation Yrotation
		JOINT Spine1
		{
			OFFSET	 0.000000	 0.000000	 0.137269
			CHANNELS 3 Zrotation Xrotation Yrotation
			JOINT Spine2
			{
				OFFSET	 0.000000	 0.000000	 0.156879
				CHANNELS 3 Zrotation Xrotation Yrotation
				JOINT LeftShoulder
				{
					OFFSET	 0.080501	-0.002496	 0.160144
					CHANNELS 3 Zrotation Xrotation Yrotation
					JOINT LeftArm
					{
						OFFSET	 0.000000	 0.000000	 0.164363
						CHANNELS 3 Zrotation Xrotation Yrotation
						JOINT LeftForeArm
						{
							OFFSET	 0.000000	 0.000000	 0.364576
							CHANNELS 3 Zrotation Xrotation Yrotation
							JOINT LeftHand
							{
								OFFSET	 0.000000	 0.000000	 0.360812
								CHANNELS 3 Zrotation Xrotation Yrotation
								JOINT LeftHandIndex1
								{
									OFFSET	 0.000000	 0.000000	 0.086006
									CHANNELS 3 Zrotation Xrotation Yrotation
									JOINT LeftHandIndex2
									{
										OFFSET	 0.000000	 0.000000	 0.047236
										CHANNELS 3 Zrotation Xrotation Yrotation
										JOINT LeftHandIndex3
										{
											OFFSET	-0.004284	-0.000551	 0.038166
											CHANNELS 3 Zrotation Xrotation Yrotation
											End Site
											{
												OFFSET	-0.004284	-0.000551	 0.038166
											}
										}
									}
								}
							}
						}
					}
				}
				JOINT Neck
				{
					OFFSET	 0.000000	 0.000000	 0.176489
					CHANNELS 3 Zrotation Xrotation Yrotation
					JOINT Head
					{
						OFFSET	 0.000000	-0.001747	 0.077940
						CHANNELS 3 Zrotation Xrotation Yrotation
						End Site
						{
							OFFSET	 0.000000	-0.001747	 0.077940
						}
					}
				}
				JOINT RightShoulder
				{
					OFFSET	-0.080363	 0.000306	 0.159706
					CHANNELS 3 Zrotation Xrotation Yrotation
					JOINT RightArm
					{
						OFFSET	 0.000000	 0.000000	 0.164196
						CHANNELS 3 Zrotation Xrotation Yrotation
						JOINT RightForeArm
						{
							OFFSET	 0.000000	 0.000000	 0.365611
							CHANNELS 3 Zrotation Xrotation Yrotation
							JOINT RightHand
							{
								OFFSET	 0.000000	 0.000000	 0.360648
								CHANNELS 3 Zrotation Xrotation Yrotation
								JOINT RightHandIndex1
								{
									OFFSET	 0.000000	 0.000000	 0.069977
									CHANNELS 3 Zrotation Xrotation Yrotation
									JOINT RightHandIndex2
									{
										OFFSET	 0.000000	 0.000000	 0.052305
										CHANNELS 3 Zrotation Xrotation Yrotation
										JOINT RightHandIndex3
										{
											OFFSET	 0.009002	-0.000782	 0.042196
											CHANNELS 3 Zrotation Xrotation Yrotation
											End Site
											{
												OFFSET	 0.009002	-0.000782	 0.042196
											}
										}
									}
								}
							}
						}
					}
				}
			}
		}
	}
}
MOTION
Frames:    5
Frame Time: 0.03333334
 0.014370	 0.067213	 1.202588	 4.161988	-1.527613	-2.746817	-4.681027	-13.341390	-170.924400	 0.433878	-38.844830	 0.032682	 46.723000	 80.089660	-50.401180	-2.371038	 31.339210	-0.063686	 1.931306	-28.427560	-175.892900	 10.412620	-53.009320	 8.911164	 14.933630	 72.196490	-10.959630	 2.358013	 33.140360	 0.106484	-5.903374	 8.803861	 2.199748	-2.052492	 2.016494	-1.544940	 3.375666	-1.809528	 1.629013	-93.799740	 58.864050	 175.695800	 24.261890	 44.853960	-20.250680	-1.138614	-2.872445	-24.743410	-0.571245	-17.303190	-6.398563	-4.870809	 19.210700	-2.785569	-3.885403	 21.423200	 2.206692	-4.807815	 5.550764	 0.146662	-0.117896	-5.025014	 0.162755	 1.115288	 2.054942	 2.886939	 89.823590	 61.592480	-179.901300	-20.692700	 52.570900	 13.918990	-1.402954	-1.626610	 8.454732	-4.897013	-3.245566	 0.741992	 6.302483	 25.793050	-0.571199	 1.756189	 45.724760	-6.877517	 0.382972	 24.901270	 3.641534
 0.013430	 0.056479	 1.201475	 5.673887	-0.501581	-2.760863	-6.103148	-14.219870	-171.041500	 1.262872	-39.124530	 0.574342	 45.666900	 80.163540	-49.955420	-2.368474	 31.767620	-0.073391	-1.632174	-30.754280	-175.798800	 12.267530	-51.874170	 10.313950	 64.503270	 82.469120	-62.856070	 2.359010	 32.994010	 0.103082	-6.809163	 8.129559	 1.851584	-1.948019	 1.442784	-1.258753	 3.082733	-2.187261	 1.540062	-94.115730	 58.981920	 175.007900	 25.936720	 43.819430	-20.507490	-2.174241	-2.617513	-26.781440	-0.087656	-17.917950	-8.458439	-4.864689	 19.383030	-2.800139	-3.869617	 21.624880	 2.190652	-4.804226	 5.593045	 0.144187	-0.037940	-5.105714	 0.232745	 1.076210	 1.710826	 2.619835	 89.712980	 61.763910	 179.834500	-19.606350	 53.350710	 11.912230	-2.274898	-1.816138	 8.757239	-5.048466	-2.443549	 0.325135	 6.276464	 23.562920	-0.551475	 2.040735	 43.414310	-7.130977	 0.796784	 23.076870	 3.433478
 0.012972	 0.034703	 1.199993	 6.455126	 0.638491	-3.232198	-6.734982	-14.250650	-170.713600	 1.618964	-38.793720	 0.793405	 46.203240	 80.305660	-50.771740	-2.364584	 32.390160	-0.087593	-2.547601	-33.764400	-174.891600	 13.607050	-49.193100	 10.914900	 115.329800	 78.044730	-116.309300	 2.360672	 32.745950	 0.097336	-7.102015	 7.095255	 1.855205	-1.840678	 1.559451	-0.788776	 2.784657	-2.723311	 1.313282	-94.394970	 58.981800	 174.412700	 26.551430	 42.211750	-20.749430	-3.238075	-2.357197	-29.808460	 0.120798	-19.034840	-8.102577	-4.842548	 19.886710	-2.820897	-3.844430	 21.944420	 2.165064	-4.790401	 5.755816	 0.134633	-0.000504	-5.199990	 0.323242	 0.878799	 1.423097	 2.547437	 89.533220	 61.983280	 179.399300	-18.394870	 54.216950	 9.463308	-3.967504	-2.225688	 9.316768	-5.941599	-1.621016	-0.925486	 6.231045	 20.863990	-0.635900	 2.303596	 41.083240	-7.361948	 1.396628	 20.328230	 3.151690
 0.012102	-0.002312	 1.197718	 6.734530	 1.009284	-3.707643	-7.116798	-12.290860	-170.325800	 1.854591	-37.854660	 0.921773	 44.732900	 80.114830	-49.488850	-2.348146	 34.714430	-0.142033	-0.556641	-35.673560	-173.343400	 12.857620	-43.824660	 9.521092	 129.086500	 69.952510	-131.345400	 2.343141	 35.137230	 0.153833	-7.404951	 6.514301	 2.051332	-1.714910	 2.595940	-0.373500	 2.576285	-3.629423	 1.092804	-94.515820	 58.928170	 174.164200	 25.189140	 40.356080	-21.164140	-3.897395	-2.215885	-32.696990	-0.365742	-19.909580	-7.779755	-4.833621	 20.386920	-2.917984	-3.806348	 22.422750	 2.126381	-4.747425	 6.259353	 0.104819	 0.066047	-5.342969	 0.350727	 0.727982	 1.129860	 2.340686	 89.394530	 62.014940	 179.063400	-16.558110	 54.973690	 6.001935	-5.980937	-2.712211	 9.792691	-6.644322	-1.541573	-3.024007	 6.176344	 17.563420	-0.708997	 2.719621	 36.954450	-7.720017	 2.079902	 17.052120	 2.861303
 0.008997	-0.052026	 1.193711	 7.100592	 0.974312	-3.599997	-8.026861	-9.123558	-170.590300	 2.469749	-36.777350	 1.267852	 35.493420	 78.454120	-40.583110	-2.292255	 40.502920	-0.289196	 0.420434	-36.032280	-172.509500	 11.436670	-34.863380	 7.042216	 103.040300	 73.713010	-105.542000	 2.338365	 35.718770	 0.167963	-8.108307	 6.419676	 1.892498	-1.563030	 3.699824	-0.138457	 2.326774	-4.646143	 0.890507	-94.523330	 59.174080	 174.107300	 22.691150	 38.736790	-22.517650	-3.996951	-2.261308	-34.002540	-1.291570	-21.789700	-8.670307	-4.874061	 20.590110	-3.213493	-3.767355	 22.906150	 2.086784	-4.682681	 7.011146	 0.059539	 0.172139	-5.474300	 0.286031	 0.667002	 0.978471	 2.012885	 89.356250	 61.693530	 178.983100	-14.721870	 55.286000	 2.000645	-7.588368	-3.088275	 10.031190	-6.998024	-2.367167	-4.749648	 6.183787	 14.309600	-0.466505	 3.002419	 33.798900	-7.957117	 2.723485	 13.833690	 2.619839
